<?xml version="1.0" standalone="no"?>
<!DOCTYPE svg PUBLIC "-//W3C//DTD SVG 20010904//EN"
 "http://www.w3.org/TR/2001/REC-SVG-20010904/DTD/svg10.dtd">
<svg version="1.0" xmlns="http://www.w3.org/2000/svg"
 width="1398.000000pt" height="1398.000000pt" viewBox="0 0 1398.000000 1398.000000"
 preserveAspectRatio="xMidYMid meet">
<metadata>
Created by potrace 1.11, written by Peter Selinger 2001-2013
</metadata>
<g transform="translate(0.000000,1398.000000) scale(0.100000,-0.100000)"
fill="#000000" stroke="none">
<path d="M8825 11052 c-41 -38 -235 -217 -279 -257 -53 -48 -224 -204 -241
-220 -11 -11 -43 -40 -71 -65 -27 -25 -78 -72 -114 -105 -36 -33 -110 -100
-164 -150 -54 -49 -113 -103 -130 -120 -18 -16 -54 -50 -82 -74 -27 -25 -98
-90 -158 -145 -60 -56 -117 -109 -128 -118 -23 -20 -196 -177 -217 -198 -9 -8
-46 -42 -81 -75 -36 -33 -115 -105 -174 -160 -60 -55 -116 -107 -126 -115 -27
-24 -179 -162 -214 -195 -36 -34 -227 -209 -267 -246 -15 -13 -69 -62 -120
-109 -51 -47 -103 -94 -115 -105 -47 -43 -209 -191 -240 -220 -17 -16 -69 -64
-115 -105 -45 -41 -97 -88 -115 -105 -17 -16 -73 -68 -124 -115 -51 -47 -107
-98 -124 -114 -17 -15 -51 -46 -76 -69 -25 -22 -72 -66 -105 -96 -33 -31 -107
-99 -165 -151 -57 -52 -114 -104 -126 -115 -26 -25 -102 -95 -229 -211 -138
-126 -149 -136 -244 -223 -46 -42 -100 -91 -120 -109 -19 -18 -75 -70 -125
-115 -49 -45 -101 -93 -116 -107 -15 -14 -49 -45 -76 -69 -27 -25 -79 -72
-115 -105 -117 -109 -183 -169 -290 -266 -57 -52 -118 -108 -135 -125 -17 -16
-60 -55 -95 -86 -35 -31 -87 -79 -115 -105 -55 -53 -81 -77 -249 -229 -60 -54
-130 -118 -155 -141 -46 -43 -76 -70 -151 -139 -24 -22 -73 -67 -109 -100 -77
-71 -242 -222 -320 -293 -30 -27 -71 -65 -91 -83 -20 -19 -61 -56 -90 -83 -30
-27 -81 -74 -115 -105 -33 -31 -104 -96 -158 -146 -54 -49 -111 -101 -126
-115 -15 -14 -67 -61 -115 -105 -48 -44 -93 -85 -99 -90 -6 -6 -67 -62 -136
-125 -190 -174 -229 -210 -295 -271 -33 -30 -80 -73 -104 -95 -24 -21 -49 -44
-55 -49 -6 -6 -72 -67 -146 -135 -74 -68 -182 -167 -240 -220 -58 -53 -129
-119 -159 -146 -30 -27 -86 -79 -125 -115 l-70 -66 6367 0 c5376 0 6367 2
6368 13 1 8 2 17 3 22 1 4 6 32 10 62 5 30 10 64 12 75 4 19 10 63 20 135 3
19 9 60 14 90 5 30 11 71 14 91 3 20 22 143 41 275 20 131 38 255 41 274 3 19
9 60 14 90 5 30 12 73 15 95 3 22 15 101 26 175 28 191 38 259 44 290 6 32 15
97 21 145 3 28 8 59 10 70 6 28 22 131 29 185 3 25 10 72 15 105 5 33 12 78
15 100 4 22 8 47 10 55 2 8 7 42 11 75 3 33 8 62 9 65 2 3 6 29 10 59 4 30 8
61 10 70 1 9 8 52 15 96 17 121 20 138 25 165 2 14 7 45 10 70 4 25 8 56 10
70 10 59 44 289 50 330 3 25 8 56 10 70 9 58 15 95 31 205 2 17 6 41 9 55 2
14 7 43 10 65 3 23 7 50 9 60 6 33 16 97 21 140 3 22 7 51 9 65 4 21 22 139
32 205 1 11 7 52 13 90 6 39 13 88 16 110 3 22 8 51 10 65 3 14 7 43 11 65 6
47 9 67 24 160 12 75 17 107 25 170 5 40 10 72 20 130 3 17 8 49 11 71 2 23 6
50 8 60 3 18 13 76 21 134 2 14 9 54 14 90 17 103 20 140 15 140 -5 0 -196
-77 -259 -105 -16 -7 -127 -52 -245 -101 -118 -48 -233 -95 -255 -104 -60 -26
-77 -32 -385 -157 -157 -63 -298 -121 -315 -128 -55 -26 -188 -76 -190 -73 -2
2 -6 23 -9 48 -4 39 -36 233 -51 313 -7 40 -13 75 -22 126 -4 25 -8 48 -8 51
-1 3 -5 28 -10 55 -4 28 -9 59 -11 70 -7 33 -12 64 -39 220 -29 176 -34 202
-40 235 -3 14 -7 43 -10 65 -3 22 -8 51 -11 65 -10 57 -13 69 -18 101 -3 19
-19 115 -36 214 -30 173 -46 267 -56 330 -2 17 -7 41 -9 55 -10 49 -15 75 -20
110 -3 20 -8 47 -10 60 -3 14 -8 45 -11 70 -3 25 -7 46 -9 48 -3 3 -29 -12
-280 -165 -603 -368 -741 -453 -752 -462 -7 -6 -14 -11 -17 -11 -5 0 -628
-378 -743 -450 -12 -8 -24 -12 -27 -10 -2 3 -79 154 -171 335 -92 182 -243
479 -335 660 -92 182 -243 479 -335 660 -92 182 -170 333 -173 337 -4 4 -30
-14 -57 -40z"/>
</g>
</svg>
